<svg xmlns="http://www.w3.org/2000/svg" xmlns:xlink="http://www.w3.org/1999/xlink" fill="none" version="1.1" width="6.899999976158142" height="13.399999976158142" viewBox="0 0 6.899999976158142 13.399999976158142"><path d="M0.18409532807907103,1.172912688079071Q0.09535622807907107,1.076106368079071,0.04774814807907102,0.953715388079071Q0.00014000807907099677,0.8313243680790711,0.00013994807907102835,0.699999988079071Q0.00014000807907099677,0.631069794079071,0.013587598079071062,0.5634640780790711Q0.027035238079071044,0.4958583580790711,0.0534136880790711,0.43217515807907103Q0.07979207807907107,0.36849194807907104,0.1180877080790711,0.31117859807907106Q0.15638321807907107,0.253865238079071,0.20512422807907105,0.20512422807907105Q0.253865238079071,0.15638321807907107,0.31117862807907104,0.11808764807907102Q0.36849194807907104,0.07979207807907107,0.43217515807907103,0.0534136880790711Q0.4958583580790711,0.027035238079071044,0.5634640780790711,0.013587598079071062Q0.631069794079071,0.00014000807907099677,0.699999988079071,0.00013994807907102835Q0.8471313880790711,0.00014000807907099677,0.981807828079071,0.05938440807907108Q1.116484288079071,0.11862879807907101,1.215904648079071,0.22708728807907103L1.216007828079071,0.22699272807907106L6.468242388079071,5.956702888079071Q6.757372588079071,6.272117788079071,6.757372588079071,6.699999488079071Q6.757372588079071,7.127881688079071,6.468242388079071,7.443296588079071L3.966007688079071,10.17300718807907L1.216007828079071,13.17300598807907L1.215905008079071,13.172911988079072Q1.116484698079071,13.281368988079072,0.981808128079071,13.340614988079071Q0.847131538079071,13.39985998807907,0.699999988079071,13.39985998807907Q0.631069794079071,13.39985998807907,0.5634640780790711,13.38641098807907Q0.4958583580790711,13.37296298807907,0.43217515807907103,13.346584988079071Q0.36849194807907104,13.320206988079072,0.31117859807907106,13.281910988079071Q0.253865238079071,13.243614988079072,0.20512422807907105,13.194874988079071Q0.15638321807907107,13.146133988079072,0.11808764807907102,13.088820988079071Q0.07979207807907107,13.031506988079071,0.0534136880790711,12.967822988079071Q0.027035238079071044,12.904139988079072,0.013587598079071062,12.836534988079071Q0.00014000807907099677,12.768929988079071,0.00013994807907102835,12.699999988079071Q0.00013994807907102835,12.568675988079072,0.04774814807907102,12.44628398807907Q0.09535628807907104,12.323893988079071,0.18409543807907103,12.227086988079071L0.18399214807907105,12.22699298807907L2.933992088079071,9.226992788079071L5.250402588079071,6.699999988079071L0.18399214807907105,1.173007248079071L0.18409532807907103,1.172912688079071Z" fill-rule="evenodd" fill="#CCCCCC" fill-opacity="1"/></svg>