<svg xmlns="http://www.w3.org/2000/svg" xmlns:xlink="http://www.w3.org/1999/xlink" fill="none" version="1.1" width="50" height="50" viewBox="0 0 50 50"><rect x="0" y="0" width="50" height="50" rx="12" fill="#EFEFEF" fill-opacity="1"/><path d="M24.6393213,31.639248C23.8841791,31.639248,23.2691679,31.089159,23.2691679,30.405931000000002L23.2691679,29.466929C23.2263513,28.633039,23.3509102,27.893751,23.6506314,27.249063C23.9464598,26.604374999999997,24.5381169,26.022757,25.4217091,25.507706L25.3866768,25.507706C26.1573877,24.9716358,26.8074322,24.4951258,27.336809199999998,24.0781813C27.866188,23.6612358,28.251541,23.303855900000002,28.492877,23.006038699999998C28.932727,22.4909892,29.177954,21.8077602,29.220771,20.9528489C29.244124,20.4553175,29.146813,20.0068398,28.940512,19.5969024C28.738103000000002,19.2009802,28.446165,18.8120654,28.064703,18.4266548C28.041348,18.405632,28.017994,18.3811059,27.9946384,18.3600836C27.185003299999998,17.6488247,26.149602899999998,17.2914438,24.8884392,17.2914438C23.6778779,17.2914438,22.685296100000002,17.7224033,21.9145849,18.5878265C21.3190355,19.253536699999998,20.9220023,20.2030492,20.719593500000002,21.4398685C20.6144967,22.0950675,19.9449902,22.5540566,19.2170964,22.4804778C18.46195528,22.4033957,17.917008072,21.7902417,18.010427589,21.1105175C18.10384711,20.4307919,18.26343879,19.8036227,18.4930951,19.225506799999998C18.85509574,18.314534899999998,19.3455482,17.5437131,19.9644526,16.9200475C20.5833569,16.2963825,21.3112502,15.81987453,22.1481338,15.4905231C22.9850173,15.16467564,23.899749800000002,15,24.8923316,15C26.9864864,15,28.683607000000002,15.5570941,29.983696000000002,16.6677787C31.326601,17.8170042,32,19.2465286,32,20.9528489C32,21.5870252,31.906582,22.1791568,31.719743,22.7222362C31.532904000000002,23.2688189,31.283784,23.7593422,30.976278,24.1938047C30.645418,24.6492901,30.158856999999998,25.146821,29.520491,25.682893C28.882125000000002,26.218965,28.088058,26.783068,27.1421852,27.378702C26.702335400000003,27.655498,26.4142914,27.928789000000002,26.2819481,28.198576C26.149602899999998,28.464861,26.0834312,28.878301999999998,26.0834312,29.435396L26.0834312,30.405931000000002C26.0834312,31.085657,25.4723115,31.639248,24.7132778,31.639248L24.6393213,31.639248Z" fill="#999999" fill-opacity="1" style="mix-blend-mode:passthrough"/><path d="M26.382845123120116,34.738655480664065Q26.382845423120116,34.80062148066406,26.376097423120118,34.86228898066406Q26.36934992312012,34.923956380664066,26.355919623120116,34.98473158066406Q26.34248952312012,35.045506980664065,26.32250592312012,35.104804480664065Q26.302522423120116,35.16410228066406,26.276177923120116,35.221351180664065Q26.249833623120118,35.27860038066406,26.21738222312012,35.33324928066406Q26.184930823120116,35.38789848066406,26.146684623120116,35.43942108066406Q26.108438723120116,35.49094388066406,26.06476642312012,35.53884438066406Q26.02109412312012,35.58674478066406,25.972415923120117,35.630561080664066Q25.923738023120116,35.674377680664065,25.870523223120117,35.71368838066406Q25.817308423120117,35.75299908066406,25.760068923120116,35.78742528066406Q25.702829623120117,35.82185168066406,25.642117023120118,35.85106228066406Q25.581404723120116,35.880272880664066,25.517803623120116,35.90398618066406Q25.454202923120118,35.92769958066406,25.38832602312012,35.945687580664064Q25.322449223120117,35.96367528066406,25.25493072312012,35.975764080664064Q25.187412523120116,35.98785308066406,25.118902923120118,35.993926980664064Q25.05039332312012,36.000000680664066,24.98155222312012,36.000000680664066Q24.91271112312012,36.000000680664066,24.844201523120116,35.993926980664064Q24.77569202312012,35.98785308066406,24.708173523120116,35.975764080664064Q24.640655323120118,35.96367528066406,24.574778373120118,35.94568728066406Q24.508901533120117,35.92769958066406,24.44530058312012,35.90398618066406Q24.381699743120116,35.880272880664066,24.320987283120118,35.85106258066406Q24.26027488312012,35.821851980664064,24.203035593120116,35.78742548066406Q24.145796303120118,35.75299928066406,24.092581393120117,35.71368838066406Q24.039366513120118,35.674377680664065,23.99068850312012,35.630561080664066Q23.94201049312012,35.58674478066406,23.898338143120117,35.53884438066406Q23.854665813120118,35.49094388066406,23.816419733120117,35.43942108066406Q23.778173683120116,35.38789848066406,23.745722203120117,35.33324928066406Q23.713270743120116,35.27860038066406,23.686926383120117,35.221351180664065Q23.66058203612012,35.16410228066406,23.640598517120118,35.10480478066406Q23.620615002120118,35.045506980664065,23.607184769120117,34.98473158066406Q23.593754538120116,34.923956380664066,23.58700693072012,34.86228898066406Q23.580259323120117,34.80062148066406,23.580259323120117,34.738655480664065Q23.580259323120117,34.67668958066406,23.58700693072012,34.61502198066406Q23.593754538120116,34.55335448066406,23.607184769120117,34.492579080664065Q23.620615002120118,34.43180394066406,23.64059852112012,34.37250626066406Q23.66058203612012,34.31320858066406,23.686926383120117,34.255959450664065Q23.713270743120116,34.198710440664065,23.745722203120117,34.14406139066406Q23.778173683120116,34.08941233066406,23.81641975312012,34.03788954066406Q23.854665813120118,33.98636675066406,23.898338143120117,33.93846649066406Q23.94201049312012,33.890566170664066,23.99068850312012,33.846749630664064Q24.039366513120118,33.802933130664066,24.092581393120117,33.763622340664064Q24.145796303120118,33.724311590664065,24.203035593120116,33.68988517066406Q24.26027488312012,33.65545876066406,24.320987343120116,33.62624822066406Q24.381699743120116,33.59703770066406,24.44530058312012,33.57332435966406Q24.508901533120117,33.549611031664064,24.574778373120118,33.53162327766406Q24.640655323120118,33.513635523664064,24.708173523120116,33.50154657266406Q24.77569202312012,33.489457623664066,24.844201523120116,33.48338390236406Q24.91271112312012,33.47731018066406,24.98155222312012,33.47731018066406Q25.05039332312012,33.47731018066406,25.11890302312012,33.48338390236406Q25.187412523120116,33.489457623664066,25.25493072312012,33.50154657266406Q25.322449223120117,33.513635523664064,25.38832602312012,33.53162328166406Q25.454202923120118,33.549611031664064,25.517803623120116,33.57332435966406Q25.581404723120116,33.59703770066406,25.642117023120118,33.62624824066406Q25.702829623120117,33.65545876066406,25.760068923120116,33.68988517066406Q25.817308423120117,33.724311590664065,25.870523223120117,33.763622340664064Q25.923738023120116,33.802933130664066,25.972415923120117,33.846749630664064Q26.02109412312012,33.890566170664066,26.06476642312012,33.93846649066406Q26.108438723120116,33.98636675066406,26.146684623120116,34.03788954066406Q26.184930823120116,34.08941233066406,26.21738222312012,34.14406139066406Q26.249833623120118,34.198710440664065,26.276177923120116,34.255959450664065Q26.302522423120116,34.31320858066406,26.32250592312012,34.37250626066406Q26.34248922312012,34.43180394066406,26.355919323120116,34.492579180664066Q26.36934992312012,34.55335448066406,26.376097423120118,34.61502208066406Q26.382845423120116,34.67668958066406,26.382845123120116,34.738655480664065Z" fill="#999999" fill-opacity="1" style="mix-blend-mode:passthrough"/></svg>