<svg xmlns="http://www.w3.org/2000/svg" xmlns:xlink="http://www.w3.org/1999/xlink" fill="none" version="1.1" width="22" height="22" viewBox="0 0 22 22"><defs><clipPath id="master_svg0_51_0803"><rect x="-0.699999988079071" y="-0.699999988079071" width="23.399999976158142" height="23.399999976158142" rx="0"/></clipPath></defs><g clip-path="url(#master_svg0_51_0803)"><g><path d="M17.395682,3.4210525L14.736816,3.4210815L14.736816,2.71051025C14.736816,2.31809741,14.41878,2,14.026367,2C13.633954,2,13.315796,2.31809741,13.315796,2.71051025L13.315796,3.4210815L8.684204099999999,3.4210815L8.684204099999999,2.71051025C8.6838202,2.31836843,8.3657742,2.00067138672,7.9736328,2.00067138672C7.581491,2.00067138672,7.263566,2.31836864,7.2631836,2.71051025L7.2631836,3.4210815L4.6043153,3.4210525C3.1657366,3.4210525,2,4.5884476,2,6.0286837L2,17.392603C2,18.833788,3.1652630999999998,20,4.6043153,20L17.395682,20C18.834263,20,20,18.832603,20,17.392367999999998L20,6.0284467C20,4.5872630999999995,18.834736,3.4210525,17.395682,3.4210525ZM14.736816,5.5526123L14.736816,4.8421021L17.395682,4.8421049C18.050425,4.8422336999999995,18.58065,5.3739452,18.578947,6.0286837L18.578947,7.3000002L3.4210522,7.3000002L3.4210522,6.0284467C3.4201359,5.3740708999999995,3.9499393,4.8428888,4.6043155,4.8421049L7.2631836,4.8421021L7.2631836,5.5526123C7.263567,5.9447541,7.5814915,6.2624512,7.9736328,6.2624512C8.3657751,6.2624512,8.6838207,5.9447541,8.684204099999999,5.5526123L8.684204099999999,4.8421021L13.315796,4.8421021L13.315796,5.5526123C13.316335,5.944641600000001,13.634337,6.262146,14.026367,6.262146C14.418397,6.262146,14.736276,5.944641600000001,14.736816,5.5526123ZM3.4210522,8.6999998L3.4210522,17.392367999999998C3.4193493,18.04711,3.9495750999999997,18.578819,4.6043153,18.578947L17.395682,18.578947C18.050058,18.578163,18.579863,18.04698,18.578947,17.392603L18.578947,8.6999998L3.4210522,8.6999998ZM16.210571,11.5263062C16.210571,11.133893,15.892411,10.8157959,15.5,10.8157959L6.5,10.8157959C6.1075869,10.8157959,5.7894287,11.133893,5.7894287,11.5263062C5.7894287,11.9187193,6.1075869,12.236816,6.5,12.236816L15.5,12.236816C15.892411,12.236816,16.210571,11.9187193,16.210571,11.5263062ZM13.368408,15.078918C13.368408,14.686505,13.05025,14.368408,12.657837,14.368408L6.5,14.368408C6.1075869,14.368406,5.7894287,14.686505,5.7894287,15.078918C5.7894287,15.471334,6.1075869,15.78949,6.5,15.78949L12.657837,15.78949C13.05025,15.78949,13.368408,15.471332,13.368408,15.078918Z" fill-rule="evenodd" fill="#666666" fill-opacity="1"/></g></g></svg>