<svg xmlns="http://www.w3.org/2000/svg" xmlns:xlink="http://www.w3.org/1999/xlink" fill="none" version="1.1" width="10" height="14" viewBox="0 0 10 14"><path d="M2.8571455,13.299995C2.8571455,13.684996,3.1785789,14,3.5714371,14L6.4285836,14C6.8214421,14,7.1428752,13.684996,7.1428752,13.299995C7.1428752,12.913403,6.8294802,12.600008,6.4428878,12.600008L3.5571332,12.600008C3.1705406,12.600008,2.8571455,12.913403,2.8571455,13.299995ZM5.0000005,0C2.2392805,0,0,2.1944957,0,4.9000025C0,6.5659976,0.85000712,8.0325012,2.142854,8.9180155L2.142854,10.500011C2.142854,10.885013,2.4642873,11.200017,2.8571455,11.200017L7.1428552,11.200017C7.5357132,11.200017,7.8571453,10.885013,7.8571453,10.500011L7.8571453,8.9180155C9.150013,8.0325203,10,6.5660181,10,4.9000025C10.000001,2.1944957,7.7607207,0,5.0000005,0ZM7.0392752,7.7700028L6.4285641,8.1864967L6.4285641,9.800005L3.5714176,9.800005L3.5714176,8.1900034L2.9607069,7.77349C1.9999844,7.1154933,1.4285634,6.0444894,1.4285634,4.9034886C1.4285634,2.9749961,3.0321324,1.4034786,5.0000005,1.4034786C6.9678693,1.4034786,8.5714378,2.9749763,8.5714378,4.9034886C8.5714178,6.0410032,7.9999962,7.1120076,7.0392752,7.7700028Z" fill="#CCCCCC" fill-opacity="1" style="mix-blend-mode:passthrough"/></svg>