<svg xmlns="http://www.w3.org/2000/svg" xmlns:xlink="http://www.w3.org/1999/xlink" fill="none" version="1.1" width="14" height="13" viewBox="0 0 14 13"><path d="M7.0011582,1.0762953C8.6615906,-0.41710883,11.194072,-0.34672117,12.76979,1.2366282C14.343998,2.818049,14.416464,5.3589082,12.934969,7.0283027L7.7091112,12.286285C7.3180647,12.679736,6.681488,12.679698,6.2904878,12.286201L1.0659472,7.0283017C-0.41738692,5.3579359,-0.34415507,2.8144138,1.2328029,1.2329932C2.8097601,-0.34842774,5.3414521,-0.417202,7.0011582,1.0762953ZM11.778723,2.2302701C10.72894,1.1763214,9.0428085,1.1291087,7.936233,2.1226783L7.0018582,2.9651294L6.0667825,2.1233814C4.9651837,1.1336604,3.2876556,1.1746378,2.2352278,2.2169747C1.1828005,3.2593122,1.1179526,4.9440074,2.0871117,6.0648985L6.2911849,10.295459C6.6821914,10.688929,7.318748,10.688951,7.7097826,10.295509L11.913805,6.0656028C12.878575,4.9500175,12.819563,3.2745483,11.778723,2.2302701Z" fill="#CCCCCC" fill-opacity="1" style="mix-blend-mode:passthrough"/></svg>