<svg xmlns="http://www.w3.org/2000/svg" xmlns:xlink="http://www.w3.org/1999/xlink" fill="none" version="1.1" width="24" height="26" viewBox="0 0 24 26"><defs><clipPath id="master_svg0_51_0799"><rect x="0" y="0" width="24" height="26" rx="0"/></clipPath></defs><g clip-path="url(#master_svg0_51_0799)"><path d="M17.73691746725464,12.134115661914063C17.73691746725464,9.053456061914062,15.15219546725464,6.5481109619140625,11.973932767254638,6.5481109619140625C8.795669567254638,6.5481109619140625,6.210948467254639,9.053455161914062,6.210948467254639,12.134115661914063C6.210948467254639,13.893105061914063,7.041107057254639,15.514096261914062,8.48686556725464,16.581150961914062C8.83978346725464,16.84159796191406,9.343092167254639,16.77551596191406,9.611790667254638,16.433435461914062C9.880488367254639,16.09135536191406,9.812311367254638,15.603503261914062,9.459393767254639,15.343056661914062C8.414677167254638,14.573377561914063,7.817123667254639,13.403309361914062,7.817123667254639,12.132173061914063C7.817123667254639,9.908655361914063,9.68197206725464,8.101075561914062,11.97593636725464,8.101075561914062C14.269900767254638,8.101075561914062,16.134748967254637,9.908655361914063,16.134748967254637,12.132173061914063C16.134748967254637,13.597671961914063,15.312612067254639,14.950442361914062,13.987166367254638,15.661811861914062C13.971123667254638,15.671529761914062,13.957087467254638,15.683192261914062,13.94104666725464,15.692910161914062C13.92500396725464,15.702629061914063,13.90896276725464,15.708459861914063,13.894927067254638,15.720121361914062C13.620212567254638,15.920315761914063,13.459795467254638,16.03693296191406,13.435732367254639,18.108848961914063L9.36715626725464,17.208944961914064C8.936034967254638,17.113707961914063,8.50491456725464,17.37415396191406,8.406659167254638,17.793978961914064C8.308403767254639,18.21185896191406,8.577102167254639,18.62974296191406,9.01022796725464,18.72497896191406L14.055345967254638,19.84256896191406C14.11550186725464,19.856174961914064,14.17365356725464,19.862003961914063,14.233808967254639,19.862003961914063C14.414279467254639,19.862003961914063,14.59073686725464,19.803695961914062,14.733108967254639,19.692908961914064C14.923603567254638,19.545193961914062,15.035895867254638,19.321673961914062,15.035895867254638,19.084552961914063L15.035895867254638,18.666671961914062C15.035895867254638,17.622939961914064,15.067979367254638,17.092328961914063,15.092041467254639,16.831880961914063C16.740127467254638,15.803482961914062,17.73636446725464,14.033991361914062,17.73691746725464,12.134115661914063ZM13.60617686725464,22.023327961914063C13.54602146725464,22.023327961914063,13.48385856725464,22.01749496191406,13.421697167254639,22.00194596191406L8.921998267254638,20.979595961914065C8.490293967254638,20.88185096191406,8.22251556725464,20.462907961914063,8.324444767254638,20.044707961914064C8.42470546725464,19.626826961914063,8.855825667254638,19.36638096191406,9.28895286725464,19.465506961914063L13.788651967254639,20.487858961914064C14.219773767254638,20.585038961914062,14.488472467254638,21.004865961914064,14.386205167254639,21.422744961914063C14.301640067254638,21.774230961914064,13.978528467254637,22.02300796191406,13.60617686725464,22.023327961914063ZM12.709847467254638,24.000001961914062C12.647685067254638,24.000001961914062,12.587529167254639,23.992228961914062,12.525367267254639,23.97862196191406L9.435333467254639,23.26919596191406C9.004373767254638,23.17065596191406,8.737626067254638,22.751920961914063,8.839785067254638,22.334307961914064C8.941931467254639,21.916923961914062,9.373547767254639,21.658602961914063,9.80429386725464,21.757051961914062L12.894328167254638,22.466475961914064C13.325448967254639,22.565598961914063,13.592142567254639,22.98348396191406,13.48987526725464,23.401362961914064C13.404911067254638,23.752320961914062,13.081759467254638,24.00032596191406,12.709847467254638,24.000001961914062Z" fill="#999999" fill-opacity="1" style="mix-blend-mode:passthrough"/><path d="M14.193706,13.030125C13.750552,13.030125,13.39162,12.682213,13.39162,12.25267C13.39162,10.8066063,12.012032,10.6938753,11.588932,10.6938753C11.1457796,10.6938753,10.7868462,10.3459654,10.7868462,9.9164224C10.7868462,9.4868793,11.1457796,9.1389694,11.588932,9.1389694C13.596151,9.1389694,14.995789,10.4198246,14.995789,12.25267C14.995789,12.682213,14.636858,13.030125,14.193706,13.030125ZM12,4.717200500000001C11.5588551,4.717200500000001,11.197916,4.3673462999999995,11.197916,3.9397469000000003L11.197916,2.7774536C11.197916,2.34985408,11.5588551,2,12,2C12.441147,2,12.802085,2.34985408,12.802085,2.7774536L12.802085,3.9397469000000003C12.802085,4.3673465,12.441147,4.7172008000000005,12,4.717200500000001ZM6.7683983,6.8163252C6.4547253,7.1194901,5.9471188,7.1194901,5.6334474,6.8163252L4.7852416,5.994168C4.4724715,5.6901285999999995,4.4724715,5.1981108,4.7852416,4.8940711C5.098913899999999,4.5909061,5.6065204,4.5909061,5.920192999999999,4.8940711L6.7683983,5.7162282C7.0812116,6.0194349,7.0812116,6.5150619,6.7683983,6.8163252ZM4.8032889,11.8872671C4.8032889,12.314866,4.4423504000000005,12.664721,4.0012035,12.664721L2.80208534,12.664721C2.36093849,12.664721,2,12.314866,2,11.8872671C2,11.4596682,2.36093849,11.1098127,2.80208534,11.1098127L4.0012035,11.1098127C4.4423504000000005,11.1098127,4.8032889,11.4596682,4.8032889,11.8872671ZM17.231604,6.8163252C16.918834,6.5122857,16.918834,6.0202675,17.231604,5.7162282L18.079809,4.8940711C18.39348,4.5909059,18.901087,4.5909059,19.214762,4.8940711C19.527531,5.1981101,19.527531,5.690129000000001,19.214762,5.994168L18.366554,6.8163252C18.053741,7.1195321,17.54241,7.1195321,17.231604,6.8163252ZM19.196712,11.8872671C19.196712,11.4596682,19.557652,11.1098127,19.998798,11.1098127L21.197914,11.1098127C21.639065,11.1098127,22,11.4596682,22,11.8872671C22,12.314866,21.639065,12.664721,21.197914,12.664721L19.998798,12.664721C19.557652,12.664721,19.196712,12.314866,19.196712,11.8872671Z" fill="#999999" fill-opacity="1" style="mix-blend-mode:passthrough"/></g></svg>