<svg xmlns="http://www.w3.org/2000/svg" xmlns:xlink="http://www.w3.org/1999/xlink" fill="none" version="1.1" width="26" height="22" viewBox="0 0 26 22"><rect x="0" y="0" width="26" height="22" rx="0" fill="#D8D8D8" fill-opacity="0"/><path d="M13.000331899999999,8C10.7948818,8,9,9.7941668,9,11.9996319C9,14.205121,10.7948818,16,13.000331899999999,16C15.2057581,16,17,14.205121,17,11.9996319C17,9.7941439,15.2057581,8,13.000331899999999,8ZM13.000331899999999,14.765343699999999C11.4740155,14.765343699999999,10.232868,13.524435,10.232868,11.9996307C10.232868,10.4748731,11.474014799999999,9.2346306,13.000331899999999,9.2346306C14.5259619,9.2346306,15.7677736,10.4748495,15.7677736,11.9996297C15.7677722,13.524436,14.5259619,14.765343699999999,13.000331899999999,14.765343699999999Z" fill="#A9D1FF" fill-opacity="1" style="mix-blend-mode:passthrough"/><path d="M19.9996683,7C19.44880578,7,19,7.44835505,19,8.000196C19,8.5513005,19.44880578,9,19.9996683,9C20.5512187,9,21,8.5513005,21,8.000196C21,7.44835505,20.5512187,7,19.9996683,7Z" fill="#A9D1FF" fill-opacity="1" style="mix-blend-mode:passthrough"/><path d="M23.999998,17.272179L23.981607,17.272179C23.976,17.287148000000002,23.966433,17.30141,23.958378,17.314806L23.958378,17.191644L23.958378,5.692201900000001C23.958378,4.9575522,23.349257,4.3598809,22.600863,4.3598809L18.537834,4.3598809L18.487442,4.3598809L18.464212,4.315681L17.932726000000002,3.2735184C17.871914,3.1400791,17.328387,2,16.587968,2L9.3712077,2.00000025018426C8.6139913,2.00000025018426,8.056111300000001,3.2095518,8.0328822,3.2612759000000002L7.4949903,4.3156815L7.4717607,4.3598814L7.4213681,4.3598814L3.3575413999999997,4.3598814C2.60917538,4.3598814,2,4.9575527,2,5.6922023L2,18.667259C2,19.402328,2.60917538,20.000002,3.3575413999999997,20.000002L22.600891,20.000002C23.349281,20.000002,23.958406,19.402328,23.958406,18.667259L23.958406,17.329014C23.972013,17.310060999999997,23.987988,17.292706000000003,23.999998,17.272179ZM22.445593,18.077507C22.445593,18.318325,22.245485,18.514893,21.998917,18.514893L3.9590354999999997,18.514894C3.7133187000000003,18.514894,3.5124133,18.318327,3.5124133,18.077507L3.512413,6.182519C3.512413,5.9413056,3.7133187000000003,5.7458922999999995,3.9590354999999997,5.7458922999999995L8.116126099999999,5.7458922999999995L8.3522472,5.5461531L9.267127,4.144360300000001C9.373626699999999,3.9631559000000003,9.7338161,3.4858682,10.0940065,3.4858682L15.865995,3.4858682C16.299779,3.4858682,16.696834000000003,4.1498919,16.701591,4.1561842L17.615727,5.5591829L17.819848999999998,5.7127292L22.001339,5.6981532999999995C22.247826,5.6981532999999995,22.44796,5.8943012,22.44796,6.13554L22.44796,17.004514C22.44796,17.008447,22.445593,17.011619,22.445593,17.015576L22.445593,18.077507Z" fill="#A9D1FF" fill-opacity="1" style="mix-blend-mode:passthrough"/></svg>