<svg xmlns="http://www.w3.org/2000/svg" xmlns:xlink="http://www.w3.org/1999/xlink" fill="none" version="1.1" width="20" height="20" viewBox="118 68 20 20"><path d="M0,152L0,132Q0,131.509026,0.024090873,131.018646Q0.048181746,130.528267,0.09630546,130.039658Q0.14442916,129.551048,0.21646976,129.065392Q0.28851038,128.579727,0.38429433,128.09819Q0.48007828,127.616653,0.59937483,127.14039199999999Q0.71867144,126.664135,0.86119318,126.194305Q1.0037149,125.72447199999999,1.1691185,125.26219900000001Q1.334522,124.799927,1.5224091,124.346329Q1.7102962,123.892731,1.9202138,123.448895Q2.1301317,123.00505799999999,2.3615744,122.572063Q2.5930171,122.139061,2.8454275,121.717941Q3.0978374,121.29682199999999,3.3706071,120.888592Q3.6433768,120.480362,3.9358487,120.086014Q4.2283211,119.69165799999999,4.5397906,119.312134Q4.8512602,118.93260599999999,5.1809769,118.568817Q5.510694,118.205032,5.8578639,117.857862Q6.2050338,117.510693,6.56882,117.180977Q6.9326072,116.851257,7.3121343,116.539789Q7.6916609,116.228319,8.0860138,115.935848Q8.4803658,115.64337499999999,8.8885946,115.370605Q9.2968235,115.097836,9.7179451,114.845425Q10.139067,114.593018,10.572065,114.361576Q11.005064,114.130131,11.448896,113.920214Q11.892731,113.710295,12.34633,113.522408Q12.799929,113.33452,13.262201,113.169117Q13.724474,113.003716,14.194306,112.861195Q14.664138,112.71867,15.140396,112.599373Q15.616655,112.480076,16.098194,112.384293Q16.579731,112.288509,17.06539,112.216469Q17.551048,112.14443,18.039658,112.096308Q18.528265,112.048183,19.018646,112.024094Q19.509027,112,20,112L142,112Q142.49097,112,142.98135,112.02409Q143.47174,112.048183,143.96034,112.096308Q144.44894,112.14443,144.9346,112.216469Q145.42026,112.288509,145.90179,112.38429500000001Q146.38333,112.48008,146.85959,112.599375Q147.33585,112.718672,147.80569,112.861195Q148.27551,113.003716,148.73778,113.169119Q149.20004,113.33452,149.65366,113.522408Q150.10724,113.710295,150.55109,113.92021199999999Q150.9949,114.130131,151.42792,114.361574Q151.86092,114.593016,152.28204,114.845427Q152.70316,115.097836,153.11139,115.370605Q153.51962,115.64337499999999,153.91397,115.935848Q154.30832,116.228321,154.68785,116.53979100000001Q155.06737,116.851259,155.43115,117.180975Q155.79494,117.510693,156.14212,117.857862Q156.48929,118.205032,156.819,118.568817Q157.14873,118.93260599999999,157.46021,119.312134Q157.77167,119.69165799999999,158.06415,120.086014Q158.35661,120.480362,158.62938,120.888592Q158.90216,121.29682199999999,159.15456,121.717941Q159.40697,122.139061,159.63841,122.572063Q159.86984,123.00505799999999,160.07977,123.448895Q160.28969,123.892731,160.47757,124.346329Q160.66547,124.799927,160.83087,125.26219900000001Q160.99628,125.72447199999999,161.13879,126.194309Q161.28131,126.664139,161.4006,127.14039600000001Q161.5199,127.616653,161.61569,128.09819Q161.71149,128.579727,161.78352,129.06538799999998Q161.85556,129.551048,161.9037,130.039658Q161.95181,130.528267,161.97592,131.018646Q162,131.509026,162,132L162,152Q162,152.490974,161.97591,152.981354Q161.95181,153.471741,161.9037,153.960342Q161.85558,154.44894399999998,161.78354,154.934601Q161.71149,155.420258,161.61571,155.901802Q161.51993,156.383339,161.40063,156.859604Q161.28134,157.335861,161.13882,157.80569500000001Q160.99631,158.275528,160.83089,158.737793Q160.66548,159.200066,160.47758,159.653664Q160.2897,160.107262,160.07979,160.55110200000001Q159.86987,160.994934,159.63843,161.427933Q159.40698,161.860931,159.15457,162.282043Q158.90216,162.703171,158.62938,163.111397Q158.35661,163.519623,158.06415,163.91397899999998Q157.77167,164.308334,157.46021,164.68786599999999Q157.14873,165.067383,156.819,165.431175Q156.48929,165.79496,156.14212,166.142136Q155.79494,166.489304,155.43115,166.81902300000002Q155.06738,167.148743,154.68787,167.460205Q154.30832,167.77167500000002,153.91397,168.064148Q153.51962,168.35661299999998,153.11139,168.629387Q152.70316,168.902161,152.28204,169.154572Q151.86093,169.406982,151.42793,169.638428Q150.99492,169.86987299999998,150.55109,170.079788Q150.10724,170.289703,149.65366,170.477585Q149.20004,170.66546599999998,148.73778,170.83087899999998Q148.27551,170.996284,147.80569,171.13880899999998Q147.33585,171.281326,146.85959,171.400627Q146.38333,171.51992,145.90179,171.615707Q145.42026,171.711487,144.9346,171.78353099999998Q144.44894,171.85557599999999,143.96034,171.903702Q143.47174,171.95182,142.98135,171.975906Q142.49097,172,142,172L20,172Q19.509027,172,19.018646,171.975914Q18.528265,171.95182,18.039658,171.903702Q17.551048,171.85557599999999,17.06539,171.78353099999998Q16.579731,171.711487,16.098192,171.615707Q15.616653,171.51992,15.140394,171.400627Q14.664137,171.281326,14.194306,171.13880899999998Q13.724474,170.996284,13.262202,170.830872Q12.79993,170.66546599999998,12.346331,170.477585Q11.892731,170.289703,11.448898,170.079788Q11.005064,169.86987299999998,10.572065,169.638428Q10.139067,169.406982,9.7179451,169.154572Q9.2968235,168.902161,8.8885946,168.629387Q8.4803658,168.35661299999998,8.0860128,168.064148Q7.6916609,167.77167500000002,7.3121338,167.460205Q6.9326067,167.148743,6.56882,166.81902300000002Q6.2050338,166.489304,5.8578639,166.142136Q5.510694,165.79496,5.1809769,165.431175Q4.8512602,165.067383,4.5397906,164.68786599999999Q4.2283211,164.308334,3.9358487,163.91397899999998Q3.6433768,163.519623,3.3706071,163.111397Q3.0978374,162.703171,2.845427,162.282043Q2.5930171,161.860931,2.3615744,161.427933Q2.1301317,160.994934,1.9202138,160.55110200000001Q1.7102962,160.107262,1.5224091,159.653664Q1.334522,159.200066,1.1691184,158.737793Q1.0037149,158.275528,0.86119318,157.80569500000001Q0.71867144,157.335861,0.59937489,156.859604Q0.48007828,156.383339,0.38429433,155.901802Q0.28851038,155.420258,0.21646976,154.934601Q0.14442916,154.44894399999998,0.09630546,153.960342Q0.048181746,153.471741,0.024090873,152.981354Q0,152.490974,0,152ZM134.92821,96Q134.96095,96.056703,134.98991,96.11542299999999Q135.01886,96.174145,135.04391,96.234633Q135.06897,96.295123,135.09003,96.357122Q135.11108,96.419121,135.12802,96.48236299999999Q135.14499,96.54560599999999,135.15775,96.609821Q135.17052,96.674036,135.17905,96.738949Q135.18759,96.803862,135.19188,96.869194Q135.19617,96.934527,135.19615,97Q135.19617,97.065474,135.19188,97.130807Q135.18759,97.19614,135.17905,97.261053Q135.17052,97.325966,135.15775,97.390181Q135.14499,97.454396,135.12802,97.517638Q135.11108,97.580881,135.09003,97.642879Q135.06898,97.70487800000001,135.04393,97.765368Q135.01888,97.825857,134.98991,97.884578Q134.96095,97.943299,134.92821,98Q134.89548,98.056702,134.85912,98.111141Q134.82274,98.165581,134.78288,98.217524Q134.74303,98.269466,134.69986,98.318692Q134.65668,98.367918,134.61038,98.414214Q134.56409,98.46051,134.51486,98.50368Q134.46564,98.54685,134.41368,98.586707Q134.36172,98.626565,134.3073,98.662939Q134.25285,98.699314,134.19615,98.73205Q134.13947,98.764788,134.08075,98.793745Q134.02203,98.822704,133.96153,98.847759Q133.90105,98.872816,133.83905,98.893862Q133.77704,98.914907,133.71381,98.93185199999999Q133.65057,98.948799,133.58635,98.961572Q133.52213,98.974345,133.45721,98.98289Q133.3923,98.991436,133.32697,98.995718Q133.26163,99,133.19615,99L122.80385,99Q122.73837,99,122.67305,98.995718Q122.60771,98.991436,122.5428,98.98289Q122.47789,98.974345,122.41368,98.961573Q122.34946,98.948799,122.28622,98.93185199999999Q122.22298,98.914907,122.16099,98.893862Q122.09898,98.872816,122.03849,98.84776Q121.978,98.822705,121.91928,98.793747Q121.86056,98.76478900000001,121.80385,98.732051Q121.74715,98.699315,121.69271,98.66294Q121.63828,98.626565,121.58633,98.586707Q121.53439,98.54685,121.48517,98.50368Q121.43594,98.46051,121.38965,98.414214Q121.34335,98.367918,121.30018,98.318692Q121.25701,98.269466,121.21715,98.217524Q121.17729,98.165581,121.14091,98.111141Q121.10454,98.056702,121.0718,98Q121.03906,97.943299,121.01011,97.884579Q120.98116,97.825857,120.95609,97.765368Q120.93105,97.704879,120.90999,97.64288Q120.88895,97.580881,120.872,97.517639Q120.85506,97.454397,120.84229,97.390182Q120.82951,97.325967,120.82096,97.261053Q120.81242,97.19614,120.80814,97.130807Q120.80385,97.065474,120.80385,97Q120.80385,96.934527,120.80814,96.869195Q120.81242,96.803862,120.82096,96.738948Q120.82951,96.674036,120.84229,96.609821Q120.85506,96.54560599999999,120.87201,96.48236299999999Q120.88895,96.419121,120.91,96.357122Q120.93105,96.295124,120.9561,96.234634Q120.98116,96.174145,121.01012,96.11542299999999Q121.03906,96.056703,121.0718,96L126.26795,87Q126.30069,86.94329858,126.33707,86.88885957Q126.37344,86.83442056,126.41331,86.78247714Q126.45317,86.73053384,126.49634,86.68130839Q126.53951,86.63208306,126.5858,86.58578646Q126.6321,86.53948992,126.68133,86.49632043Q126.73055,86.45315093,126.78249,86.41329336Q126.83443,86.3734358,126.88886,86.33706081Q126.9433,86.30068585,127,86.26794925Q127.05671,86.23521265,127.11543,86.2062546Q127.17415,86.17729655,127.23463,86.15224102Q127.29512,86.12718552,127.35712,86.10613985Q127.41912,86.085094169,127.48236,86.068148457Q127.54561,86.051202744,127.60982,86.038429558Q127.67403,86.025656372,127.73894,86.017110405Q127.80386,86.0085644405,127.86919,86.0042822924Q127.93452,86.00000014394212,128,86.00000014901161Q128.06548,86.00000015408114,128.13081,86.0042823129Q128.19615,86.0085644713,128.26106,86.017110446Q128.32597,86.025656424,128.3902,86.038429622Q128.45441,86.051202819,128.51764,86.068148538Q128.58087,86.085094258,128.64288,86.10613994Q128.7049,86.12718561,128.76538,86.15224114Q128.82587,86.17729667,128.88458,86.20625472Q128.9433,86.23521279,129,86.2679494Q129.0567,86.300686,129.11115,86.33706099Q129.16559,86.37343597,129.21753,86.41329357Q129.26949,86.45315117,129.31871,86.49632064Q129.36792,86.5394901,129.41422,86.5857867Q129.46051,86.6320833,129.50368,86.68130869Q129.54684,86.73053408,129.5867,86.78247738Q129.62656,86.8344208,129.66293,86.88885981Q129.69931,86.94329882,129.73206,87.0000002L134.92821,96Z" fill="#CEE6FF" fill-opacity="1" transform="matrix(1,0,0,-1,0,172)"/></svg>