<svg xmlns="http://www.w3.org/2000/svg" xmlns:xlink="http://www.w3.org/1999/xlink" fill="none" version="1.1" width="6" height="5.999999523162842" viewBox="0 0 6 5.999999523162842"><path d="M5.8598137,5.1910114L3.669872,3.0002372L5.8604445,0.80946261C6.0460978,0.62379307,6.0467286,0.32444811,5.8610759,0.13877873C5.6760545,-0.046259202,5.3754745,-0.046259202,5.1910853,0.13877873L2.9998813,2.3295529L0.80867732,0.13877855C0.62428766,-0.046259392,0.32433897,-0.046259392,0.13868657,0.13877855C-0.045702826,0.32381669,-0.045702826,0.62442446,0.13994958,0.81009424L2.329891,3.0002372L0.13931827,5.1903806C-0.04633414,5.3754182,-0.04633414,5.675395,0.13868678,5.861064C0.23151287,5.9545307,0.35401821,5.9999995,0.47399768,5.9999995C0.59397715,5.9999995,0.7164824,5.9545307,0.80867732,5.8616948L2.9998813,3.6709211L5.1910853,5.8616948C5.2839112,5.9538984,5.4051547,5.9999995,5.5257649,5.9999995C5.647007,5.9999995,5.7682505,5.9545307,5.8604445,5.8616948C6.0454664,5.6753941,6.0460978,5.3760495,5.8598137,5.1910114Z" fill="#3D3D3D" fill-opacity="1" style="mix-blend-mode:passthrough"/></svg>