<svg xmlns="http://www.w3.org/2000/svg" xmlns:xlink="http://www.w3.org/1999/xlink" fill="none" version="1.1" width="16" height="16" viewBox="0 0 16 16"><path d="M8.706965,1.70696574Q8.8475895,1.56634152,8.923694600000001,1.38260713Q8.9997997,1.19887272,8.9998002,1Q8.9997997,0.901528291,8.9805889,0.8049487Q8.961377599999999,0.70836911,8.923693700000001,0.61739314Q8.886010200000001,0.52641714,8.8313026,0.44454092Q8.7765951,0.36266469999999995,8.706965,0.29303467000000005Q8.6373348,0.22340464999999998,8.5554585,0.16869676Q8.4735823,0.11398881999999999,8.382606,0.07630532999999995Q8.291629799999999,0.03862178000000005,8.1950507,0.019410909999999948Q8.098471199999999,0.0002000300000000177,8,0.00019997000000004928Q7.801127,0.0002000300000000177,7.6173921,0.07630532999999995Q7.4336576,0.15241068999999996,7.2930341,0.29303497L7.2928925,0.29289329L-0.38850929999999995,7.9742951L6.7672067,15.68045L6.7673531,15.680315Q6.909234,15.833109,7.1003618,15.916454Q7.2914896,15.9998,7.5,15.9998Q7.5984716,15.999799,7.6950502,15.980587Q7.7916298,15.961376,7.8826056,15.923693Q7.9735818,15.886009,8.0554585,15.831302Q8.1373348,15.776594,8.206965,15.706964Q8.2765946,15.637334,8.3313026,15.555458Q8.386010200000001,15.473581,8.423694099999999,15.382605Q8.461378100000001,15.29163,8.4805889,15.19505Q8.4997997,15.098471,8.4998002,15Q8.4998007,14.810729,8.430618299999999,14.634556Q8.361436399999999,14.458381,8.232645999999999,14.319684L8.2327933,14.319548L3.2932129,9L14.999999,9L14.999999,8.9998002Q15.098471,8.9997997,15.195049,8.9805889Q15.291629,8.961377599999999,15.382605,8.923693700000001Q15.473581,8.886010200000001,15.555457,8.8313026Q15.637334,8.7765951,15.706964,8.706965Q15.776594,8.6373348,15.831301,8.5554585Q15.886009,8.4735823,15.923693,8.382606Q15.961376,8.291629799999999,15.980588,8.1950507Q15.999799,8.098471199999999,15.9998,8Q15.999799,7.9015274,15.980587,7.8049479Q15.961376,7.7083683,15.923693,7.6173921Q15.886009,7.5264158,15.831302,7.44454Q15.776594,7.3626637,15.706964,7.2930341Q15.637334,7.2234039,15.555458,7.1686959Q15.473581,7.1139879,15.382605,7.0763049Q15.29163,7.0386214,15.19505,7.0194106Q15.098471,7.0001998,15,7.0001998L14.999999,6.9999995L3.4142132,6.9999995L8.7071061,1.7071067100000001L8.706965,1.70696574Z" fill-rule="evenodd" fill="#666666" fill-opacity="1"/></svg>