<svg xmlns="http://www.w3.org/2000/svg" xmlns:xlink="http://www.w3.org/1999/xlink" fill="none" version="1.1" width="6.899999976158142" height="13.399999976158142" viewBox="0 0 6.899999976158142 13.399999976158142"><g transform="matrix(-1,0,0,1,12.399999976158142,0)"><path d="M5.684095328079071,1.172912688079071Q5.595356228079071,1.076106368079071,5.547748148079071,0.953715388079071Q5.500140008079071,0.8313243680790711,5.500139948079071,0.699999988079071Q5.500140008079071,0.631069794079071,5.513587598079071,0.5634640780790711Q5.527035238079071,0.4958583580790711,5.553413688079071,0.43217515807907103Q5.5797920780790715,0.36849194807907104,5.618087708079071,0.31117859807907106Q5.656383218079071,0.253865238079071,5.705124228079071,0.20512422807907105Q5.753865238079071,0.15638321807907107,5.811178628079071,0.11808764807907102Q5.868491948079071,0.07979207807907107,5.932175158079071,0.0534136880790711Q5.995858358079071,0.027035238079071044,6.063464078079071,0.013587598079071062Q6.131069794079071,0.00014000807907099677,6.199999988079071,0.00013994807907102835Q6.347131388079071,0.00014000807907099677,6.481807828079071,0.05938440807907108Q6.616484288079071,0.11862879807907101,6.715904648079071,0.22708728807907103L6.716007828079071,0.22699272807907106L11.968242388079071,5.956702888079071Q12.257372588079072,6.272117788079071,12.257372588079072,6.699999488079071Q12.257372588079072,7.127881688079071,11.968242388079071,7.443296588079071L9.46600768807907,10.17300718807907L6.716007828079071,13.17300598807907L6.715905008079071,13.172911988079072Q6.616484698079071,13.281368988079072,6.481808128079071,13.340614988079071Q6.347131538079071,13.39985998807907,6.199999988079071,13.39985998807907Q6.131069794079071,13.39985998807907,6.063464078079071,13.38641098807907Q5.995858358079071,13.37296298807907,5.932175158079071,13.346584988079071Q5.868491948079071,13.320206988079072,5.811178598079071,13.281910988079071Q5.753865238079071,13.243614988079072,5.705124228079071,13.194874988079071Q5.656383218079071,13.146133988079072,5.618087648079071,13.088820988079071Q5.5797920780790715,13.031506988079071,5.553413688079071,12.967822988079071Q5.527035238079071,12.904139988079072,5.513587598079071,12.836534988079071Q5.500140008079071,12.768929988079071,5.500139948079071,12.699999988079071Q5.500139948079071,12.568675988079072,5.547748148079071,12.44628398807907Q5.595356288079071,12.323893988079071,5.684095438079071,12.227086988079071L5.683992148079071,12.22699298807907L8.433992088079071,9.226992788079071L10.750402588079071,6.699999988079071L5.683992148079071,1.173007248079071L5.684095328079071,1.172912688079071Z" fill-rule="evenodd" fill="#3D3D3D" fill-opacity="1"/></g></svg>