<svg xmlns="http://www.w3.org/2000/svg" xmlns:xlink="http://www.w3.org/1999/xlink" fill="none" version="1.1" width="25" height="24" viewBox="0 0 25 24"><defs><clipPath id="master_svg0_51_0807"><rect x="0" y="0" width="25" height="24" rx="0"/></clipPath></defs><g clip-path="url(#master_svg0_51_0807)"><rect x="0" y="0" width="25" height="24" rx="0" fill="#FFFFFF" fill-opacity="0"/><g><path d="M14.327676,2.2386496396875L14.32674,2.2391016796875C12.838576,2.9612138896875,10.2190361,5.2063358296875,7.9521608,7.4958601296875C9.0101929,7.9396939296875,9.854554199999999,8.7625951296875,10.3121252,9.7958488296875C12.893384,7.3538761296875,15.884315,4.1449604296875,15.954659,2.8680111196875C15.972473,2.5391761696875,15.836662,2.3331764596875,15.719117,2.2182085196875C15.273046,1.7819078896875,14.587096,2.1133143896875,14.327676,2.2386496396875ZM7.7232599,14.6985189296875C8.261034500000001,14.1736489296875,8.6006269,13.4857069296875,8.6864061,12.7473859296875L8.6873164,12.7456419296875C9.8966651,11.7286873296875,11.6888905,10.0754585296875,13.291903,8.4052310296875C13.348181,8.3475961296875,13.403988,8.2895221296875,13.459319,8.231017129687501C13.540936,8.798306929687499,14.054611,9.2089772296875,14.63925,9.1743421296875C15.223887,9.139708029687501,15.683132,8.671402929687499,15.694151,8.0986252296875C15.694151,7.0450992296875,16.420866,6.0703954296875,17.421386,5.7820849296875C18.052788,5.6009116296875,19.164648,5.5891483296875,20.493797,6.8891616296875C23.459326,9.789318529687499,23.760792,14.2272929296875,21.569571,17.3578119296875C18.18549,22.1921039296875,10.9920378,22.2356549296875,7.5763311,17.3578119296875C7.1521626,16.750636929687502,6.815763,16.0890739296875,6.5766664,15.3918719296875C7.1159101,15.1523229296875,7.4841528,14.9323879296875,7.7232599,14.6985189296875ZM9.4238,10.6215925296875C9.2665687,10.0877027296875,8.973131200000001,9.601683129687501,8.571063500000001,9.209208029687499C8.1654534,8.810271229687501,7.6612582,8.520716229687501,7.1074491,8.3686399296875C6.8427691,8.6479611296875,6.5818167,8.9306369296875,6.3246584,9.2165937296875C7.3930492,9.534689929687499,8.2304783,10.3505182296875,8.559946499999999,11.3942299296875C8.850661800000001,11.1396560296875,9.138629,10.8820963296875,9.4238,10.6215925296875ZM6.9297886,13.9219669296875C7.8056717,13.0632919296875,7.8056717,11.6732034296875,6.9297886,10.8145294296875C6.0520363,9.9578733296875,4.6309423,9.9578733296875,3.7531896,10.8145294296875C3.2250812,11.3314962296875,2.42180169,13.8344419296875,2.032635231,14.9027749296875C1.959767651,15.1026439296875,2.011139725,15.3256889296875,2.16459009,15.4756899296875C2.31804061,15.6256909296875,2.54611033,15.6758079296875,2.75041336,15.6044209296875C3.8128525,15.2333549296875,6.3998966,14.4398419296875,6.9297886,13.9219669296875ZM20,15.4995119296875Q20,15.5487569296875,19.990393,15.5970559296875Q19.980785,15.6453549296875,19.961939,15.6908519296875Q19.943092,15.7363489296875,19.915733,15.7772949296875Q19.888374,15.8182409296875,19.853552,15.8530639296875Q19.818729,15.8878859296875,19.777784,15.9152449296875Q19.736837,15.9426039296875,19.691339,15.9614499296875Q19.645844,15.9802949296875,19.597544,15.9899029296875Q19.549244,15.9995109296875,19.5,15.9995119296875Q19.450754,15.9995109296875,19.402454,15.9899039296875Q19.354155,15.9802949296875,19.308657,15.9614499296875Q19.263161,15.9426039296875,19.222214,15.9152449296875Q19.181267,15.8878859296875,19.146446,15.8530639296875Q19.111624,15.8182409296875,19.084265,15.7772949296875Q19.056904,15.7363479296875,19.038059,15.6908509296875Q19.019215,15.6453539296875,19.009607,15.5970559296875Q19,15.5487569296875,19,15.4995119296875Q19,15.4502659296875,19.009607,15.4019659296875Q19.019215,15.3536659296875,19.038059,15.3081679296875Q19.056904,15.2626719296875,19.084263,15.2217259296875Q19.111624,15.1807799296875,19.146446,15.1459579296875Q19.181267,15.1111369296875,19.222214,15.0837769296875Q19.263161,15.0564179296875,19.308657,15.0375709296875Q19.354155,15.0187259296875,19.402454,15.0091179296875Q19.450754,14.9995119296875,19.5,14.9995119296875Q19.549244,14.9995119296875,19.597544,15.0091189296875Q19.645844,15.0187259296875,19.691339,15.0375709296875Q19.736837,15.0564179296875,19.777784,15.0837769296875Q19.818729,15.1111369296875,19.853552,15.1459579296875Q19.888374,15.1807799296875,19.915733,15.2217259296875Q19.943092,15.2626719296875,19.961939,15.3081679296875Q19.980785,15.3536659296875,19.990391,15.4019659296875Q20,15.4502659296875,20,15.4995119296875ZM13.5,18.9995119296875Q13.57369,18.9995119296875,13.647026,18.9922909296875Q13.720362,18.9850659296875,13.792635,18.9706899296875Q13.86491,18.9563139296875,13.935427,18.9349209296875Q14.005943,18.9135319296875,14.074024,18.8853299296875Q14.142105,18.8571299296875,14.207094,18.8223929296875Q14.272083,18.7876549296875,14.333353,18.7467159296875Q14.394626,18.7057759296875,14.45159,18.6590269296875Q14.508553,18.6122779296875,14.560659,18.5601709296875Q14.612766,18.5080639296875,14.659515,18.4511009296875Q14.706264,18.3941379296875,14.747204,18.3328669296875Q14.788144,18.2715949296875,14.822882,18.2066059296875Q14.857618,18.1416169296875,14.885818,18.0735359296875Q14.914019,18.0054549296875,14.93541,17.934938929687497Q14.956801,17.864421929687502,14.971177,17.792146929687497Q14.985555,17.7198729296875,14.992778,17.6465379296875Q15.000001,17.5732019296875,15,17.4995119296875Q15.000001,17.4258219296875,14.992778,17.3524859296875Q14.985555,17.2791499296875,14.971177,17.2068749296875Q14.956801,17.1346019296875,14.93541,17.0640829296875Q14.914019,16.9935669296875,14.885818,16.9254849296875Q14.857618,16.857404929687497,14.822882,16.7924159296875Q14.788144,16.7274269296875,14.747204,16.6661549296875Q14.706264,16.6048849296875,14.659515,16.5479209296875Q14.612766,16.4909569296875,14.560659,16.4388499296875Q14.508553,16.386743929687498,14.45159,16.3399949296875Q14.394626,16.2932469296875,14.333353,16.252305929687502Q14.272083,16.2113669296875,14.207094,16.1766289296875Q14.142105,16.1418919296875,14.074024,16.1136909296875Q14.005943,16.0854929296875,13.935427,16.0641009296875Q13.86491,16.0427109296875,13.792635,16.0283339296875Q13.720362,16.0139579296875,13.647026,16.0067349296875Q13.57369,15.9995129296875,13.5,15.9995119296875Q13.426311,15.9995129296875,13.352975,16.0067359296875Q13.279638,16.0139579296875,13.207363,16.0283339296875Q13.13509,16.0427109296875,13.064572,16.0641009296875Q12.994056,16.0854929296875,12.925974,16.1136909296875Q12.857893,16.1418919296875,12.792904,16.1766289296875Q12.727916,16.2113669296875,12.666644,16.252305929687502Q12.605373,16.2932469296875,12.54841,16.3399949296875Q12.491447,16.386743929687498,12.43934,16.4388499296875Q12.387233,16.4909569296875,12.340485,16.547919929687502Q12.293736,16.6048839296875,12.252795,16.6661539296875Q12.211856,16.7274269296875,12.177118,16.7924159296875Q12.142381,16.857404929687497,12.11418,16.9254849296875Q12.08598,16.9935669296875,12.06459,17.0640829296875Q12.043199,17.1346019296875,12.028822,17.2068749296875Q12.014446,17.2791499296875,12.007223,17.3524859296875Q12.000001,17.4258219296875,12,17.4995119296875Q12.000001,17.5732019296875,12.007223,17.6465379296875Q12.014446,17.7198729296875,12.028822,17.792146929687497Q12.043199,17.864421929687502,12.06459,17.934938929687497Q12.08598,18.0054549296875,12.11418,18.0735359296875Q12.142381,18.1416169296875,12.177118,18.2066059296875Q12.211856,18.2715949296875,12.252795,18.3328669296875Q12.293736,18.3941379296875,12.340485,18.4510989296875Q12.387233,18.5080639296875,12.43934,18.5601709296875Q12.491447,18.6122779296875,12.54841,18.6590269296875Q12.605373,18.7057759296875,12.666643,18.7467139296875Q12.727915,18.7876549296875,12.792904,18.8223919296875Q12.857893,18.8571299296875,12.925974,18.8853299296875Q12.994056,18.9135319296875,13.064573,18.9349209296875Q13.13509,18.9563139296875,13.207364,18.9706879296875Q13.279639,18.9850659296875,13.352975,18.9922889296875Q13.426311,18.9995119296875,13.5,18.9995119296875ZM17,17.9995119296875Q17.098489999999998,17.9995109296875,17.195088,17.9802949296875Q17.291687,17.961080929687498,17.382680999999998,17.923389929687502Q17.473675,17.885697929687502,17.555569,17.8309789296875Q17.637461000000002,17.776259929687498,17.707106,17.7066169296875Q17.77675,17.636971929687498,17.831469,17.5550799296875Q17.886187,17.4731869296875,17.923878000000002,17.3821929296875Q17.961569,17.2911989296875,17.980784,17.1945999296875Q17.999999000000003,17.0980029296875,18,16.9995119296875Q17.999999000000003,16.9010199296875,17.980783000000002,16.804420929687502Q17.961569,16.7078209296875,17.923878000000002,16.6168259296875Q17.886187,16.5258309296875,17.831469,16.443938929687498Q17.77675,16.3620469296875,17.707106,16.292403929687502Q17.637461000000002,16.2227589296875,17.555569,16.1680409296875Q17.473675,16.1133209296875,17.382680999999998,16.0756299296875Q17.291687,16.0379399296875,17.195088,16.0187249296875Q17.098489999999998,15.9995119296875,17,15.9995119296875Q16.901508,15.9995119296875,16.804909000000002,16.0187259296875Q16.708309,16.0379409296875,16.617314999999998,16.0756309296875Q16.52632,16.1133209296875,16.444426999999997,16.168039929687502Q16.362535,16.2227589296875,16.292892000000002,16.292402929687498Q16.223247999999998,16.3620459296875,16.168529,16.4439379296875Q16.11381,16.5258309296875,16.076118,16.6168259296875Q16.038427,16.7078209296875,16.019213999999998,16.804420929687502Q15.999999,16.9010199296875,16,16.9995119296875Q15.999999,17.0980029296875,16.019213999999998,17.1946009296875Q16.038427,17.2911989296875,16.076118,17.3821939296875Q16.11381,17.473187929687498,16.168529,17.5550799296875Q16.223247999999998,17.636971929687498,16.292892000000002,17.7066169296875Q16.362536,17.776259929687498,16.444429,17.8309799296875Q16.526321,17.885697929687502,16.617314999999998,17.923389929687502Q16.708309,17.961080929687498,16.804909000000002,17.9802949296875Q16.901508,17.9995109296875,17,17.9995119296875Z" fill-rule="evenodd" fill="#FFFFFF" fill-opacity="1"/></g></g></svg>