<svg xmlns="http://www.w3.org/2000/svg" xmlns:xlink="http://www.w3.org/1999/xlink" fill="none" version="1.1" width="12" height="12" viewBox="0 0 12 12"><path d="M5.999999,12C2.6924996,12,0,9.3074989,0,6C0,2.6925006,2.6924996,0,5.999999,0C9.3074989,0,12,2.6924999,12,6C12,9.3074989,9.3074989,12,5.999999,12ZM5.999999,0.60000026C3.0224998,0.60000026,0.59999967,3.0225003,0.59999967,6.0000005C0.59999967,8.9775009,3.0224993,11.400002,5.999999,11.400002C8.977499,11.400002,11.4,8.9775009,11.4,6.0000005C11.4,3.0225003,8.977499,0.60000026,5.999999,0.60000026Z" fill="#35B118" fill-opacity="1" style="mix-blend-mode:passthrough"/><g><path d="M4.818069364846802,7.949311452935791C4.873454764846802,7.994759052935791,4.938729064846802,8.01748325293579,5.004003264846801,8.01748325293579C5.079003764846802,8.01748345293579,5.154003864846802,7.987483252935791,5.221503764846801,7.927483052935791L8.736004064846803,4.559983072935791C8.856003964846803,4.439982532935791,8.856003964846803,4.252482742935791,8.736004064846803,4.132482811935791C8.616003264846801,4.012482868935791,8.4285042648468,4.012482868935791,8.308503364846802,4.132482811935791L5.005411664846802,7.297418152935791L3.678000744846802,5.970007052935791C3.5580002648468017,5.850007152935791,3.3705004948468016,5.850007152935791,3.2505005668468017,5.970007052935791C3.1305006428468016,6.090007552935791,3.1305006428468016,6.277507352935791,3.2505005668468017,6.397507152935791L4.750500564846802,7.897507452935791C4.771412964846801,7.918419852935791,4.794147564846802,7.935687752935792,4.818069364846802,7.949311452935791Z" fill-rule="evenodd" fill="#35B118" fill-opacity="1" style="mix-blend-mode:passthrough"/></g></svg>