<svg xmlns="http://www.w3.org/2000/svg" xmlns:xlink="http://www.w3.org/1999/xlink" fill="none" version="1.1" width="26" height="21" viewBox="0 0 26 21"><rect x="0" y="0" width="26" height="21" rx="0" fill="#D8D8D8" fill-opacity="0"/><path d="M21.973684,17.583334C22.133556,17.583332,22.263157,17.47762,22.263157,17.347223L22.263157,3.652778C22.263157,3.5223776,22.133556,3.4166669,21.973684,3.4166669L4.0263159,3.4166669C3.8664439,3.4166669,3.7368422,3.5223776,3.7368422,3.652778L3.7368422,17.347223C3.7368433000000003,17.477624,3.8664448,17.583334,4.0263159,17.583334L21.973684,17.583334ZM21.973684,19L4.0263159,19C2.90721232,18.999998,2.00000012146801,18.260027,2,17.347223L2,3.652778C1.99999987853199,2.73997396,2.90721232,2.00000019815235,4.0263159,2L21.973684,2C23.092789,2.00000019815235,24,2.73997378,24,3.652778L24,17.347223C23.999998,18.260027,23.092789,19,21.973684,19Z" fill="#A9D1FF" fill-opacity="1" style="mix-blend-mode:passthrough"/><path d="M3.2016158,14.091295200000001L2,13.0018735L6.6482625,9.45410538C7.4733129,8.82423422,8.750387199999999,8.85303855,9.5332069,9.51917475L13.57296,12.9575071C13.682638,13.051003,13.86095,13.0570588,13.979424,12.9713101L16.376137999999997,11.238587599999999C17.165753000000002,10.667812,18.342693,10.6756318,19.121252,11.2568269L24.000002,14.899241400000001L22.8132,16L17.933853,12.357092399999999C17.822665999999998,12.274353,17.65488,12.2732966,17.542203,12.3546276L15.145487,14.0873504C14.316601,14.686779999999999,13.069719,14.644628,12.302019,13.991224299999999L8.2616744,10.5528915C8.1499052,10.4578902,7.9677186,10.4537467,7.8498788,10.5435255L3.2016158,14.091295200000001Z" fill="#A9D1FF" fill-opacity="1" style="mix-blend-mode:passthrough"/><path d="M17.9999999,6.99999994Q17.9999998,7.0984912,17.980785,7.1950901Q17.961570299999998,7.2916889000000005,17.9238793,7.3826832Q17.8861883,7.4736773,17.8314693,7.5555699Q17.7767504,7.6374626,17.7071066,7.7071065999999995Q17.6374626,7.7767504,17.555569900000002,7.8314693Q17.4736774,7.8861881,17.3826833,7.9238791Q17.291689,7.9615703,17.1950902,7.9807849Q17.0984912,7.9999998,16.99999994,7.9999999Q16.90150845,7.9999998,16.80490959,7.980785Q16.7083106,7.9615703,16.61731642,7.9238793Q16.52632225,7.8861883,16.4444297,7.8314693Q16.36253709,7.7767504,16.29289317,7.7071065999999995Q16.22324924,7.6374626,16.16853036,7.5555699Q16.11381147,7.4736774,16.076120451,7.3826833Q16.038429432,7.291689,16.019214716,7.1950902Q16,7.0984912,16,6.99999994Q16,6.90150845,16.019214716,6.80490959Q16.038429432,6.7083106,16.076120451,6.61731642Q16.11381147,6.52632225,16.16853036,6.4444297Q16.22324924,6.36253709,16.29289317,6.29289317Q16.36253709,6.22324924,16.4444297,6.16853036Q16.52632231,6.11381147,16.61731648,6.076120451Q16.70831066,6.038429432,16.80490959,6.019214716Q16.90150845,6,16.99999994,6Q17.0984912,6,17.1950901,6.019214716Q17.2916889,6.038429432,17.3826832,6.076120451Q17.4736773,6.11381147,17.555569900000002,6.16853036Q17.6374626,6.22324924,17.7071066,6.29289317Q17.7767504,6.36253709,17.8314693,6.4444297Q17.8861881,6.52632231,17.9238791,6.6173164799999995Q17.961570299999998,6.70831066,17.9807849,6.80490959Q17.9999998,6.90150845,17.9999999,6.99999994Z" fill="#A9D1FF" fill-opacity="1" style="mix-blend-mode:passthrough"/></svg>