<svg xmlns="http://www.w3.org/2000/svg" xmlns:xlink="http://www.w3.org/1999/xlink" fill="none" version="1.1" width="12" height="12" viewBox="0 0 12 12"><g><path d="M0,6C0,9.3074989,2.6924996,12,5.999999,12C9.3074989,12,12,9.3074989,12,6C12,2.6924999,9.3074989,0,5.999999,0C2.6924996,0,0,2.6925006,0,6ZM0.59999967,6.0000005C0.59999967,3.0225003,3.0224998,0.60000026,5.999999,0.60000026C8.977499,0.60000026,11.4,3.0225003,11.4,6.0000005C11.4,8.9775009,8.977499,11.400002,5.999999,11.400002C3.0224993,11.400002,0.59999967,8.9775009,0.59999967,6.0000005ZM5.6308298,7.5672088C5.6306176,7.7675872,5.7916589,7.9300795,5.9902482,7.9298654C6.1887331,7.9298663,6.3492837,7.7674832,6.3492837,7.5672097L6.3492837,3.0819454C6.3492837,2.8817625,6.1884522,2.7194824,5.990057,2.7194824C5.7916613,2.7194824,5.6308298,2.8817625,5.6308298,3.0819454L5.6308298,7.5672088ZM5.9902482,9.3344822C5.7669873,9.3344822,5.5859981,9.1518631,5.5859985,8.92659C5.5859981,8.7013187,5.7669873,8.5186996,5.9902482,8.5186996C6.2135096,8.5186996,6.3944983,8.7013168,6.3944983,8.92659C6.3944983,9.1518631,6.2135096,9.3344822,5.9902482,9.3344822Z" fill-rule="evenodd" fill="#FE585B" fill-opacity="1" style="mix-blend-mode:passthrough"/></g></svg>